<svg xmlns:xlink="http://www.w3.org/1999/xlink" role="presentation" data-name="icon-arrow" xmlns="http://www.w3.org/2000/svg" viewBox="0 0 62 62" class="icon-arrow__svg__1L0V9_0 icon-arrow__shadow__28pOR_0 FeaturedItemCard__arrow__2CmE2_0" width="62"  height="62" ><circle data-name="filled" cx="31" cy="31" r="30" class="icon-arrow__filled__5MdE__0" fill="#327C95"></circle> <circle data-name="bordered" cx="31" cy="31" r="30" class="icon-arrow__bordered__4teB-_0" fill="#FFFFFF"></circle> <path data-name="arrow" d="M25.5 32h8l-2.3 2.4c-.2.2-.2.5 0 .7l.7.7c.2.2.5.2.7 0l4.3-4.5c.2-.2.2-.5 0-.7l-4.3-4.5c-.2-.2-.5-.2-.7 0l-.7.7c-.2.2-.2.5 0 .7l2.3 2.4h-8c-.3 0-.5.2-.5.5v1c0 .4.2.6.5.6z" class="icon-arrow__arrow__2pvko_0" fill="#273144"></path></svg>