<svg xmlns:xlink="http://www.w3.org/1999/xlink" xmlns="http://www.w3.org/2000/svg" id="Layer_1" x="0" y="0" version="1.1" viewBox="0 0 604.74 273.57" xml:space="preserve" class="MainHeader__logo__211Q4_0" width="604.74"  height="273.57" ><path d="M344.79 54.4c-13.12-4.65-31.1-9.31-44.43-9.31-10.37 0-17.98 1.9-17.98 7.19 0 19.25 71.08 13.54 71.08 60.93 0 34.91-32.58 48.02-65.16 48.02-19.04 0-36.39-3.17-50.56-8.25v-37.87c14.39 6.56 34.27 11.64 50.99 11.64 9.73 0 18.19-2.54 18.19-8.88 0-19.89-70.66-12.91-70.66-61.56 0-33.64 30.89-45.48 61.56-45.48 17.77 0 33.85 2.54 46.97 6.77v36.8zM431.31 157.85h-57.97V14.63h60.72c61.56 0 88.43 26.23 88.43 69.81 0 48.66-29.19 73.41-91.18 73.41zm-1.06-108.1h-10.79v72.78h10.37c27.72 0 45.48-2.96 45.48-37.45 0-28.35-14.59-35.33-45.06-35.33zM589.97 14.63v143.22h-46.12V14.63h46.12zM278.33 262.76l-13.12-23h-8.27v23H244.1v-60.81h21.11c15.72 0 23.09 5.84 23.09 17.61 0 6.74-4.4 12.76-11.14 15.99l15.72 27.22h-14.55zm-2.88-42.14c0-5.84-4.13-7.73-10.33-7.73h-8.18v16.17h8.18c6.47.01 10.33-2.86 10.33-8.44zM308.06 201.94h38.45v11.14H321v12.84h22.19v11.14H321v14.55h25.78v11.14h-38.72v-60.81zM420.81 262.76h-13.47l-4.22-12.94H381.2l-4.13 12.94h-12.85l20.84-60.81h14.91l20.84 60.81zm-28.84-48.33l-7.91 24.44h16.17l-8.08-24.44h-.18zM436.26 201.94h12.94v49.68h25.78v11.14h-38.72v-60.82zM510.37 262.76h-12.85v-49.68h-17.61v-11.14h47.97v11.14h-17.52v49.68zM540.56 201.94h14.46l12.85 25.42h.27l12.76-25.42h13.38l-20.48 37.19v23.62h-12.76v-23.62l-20.48-37.19z" fill="#172032"></path> <path d="M52.97 262.76h112.86c5.39-6.1 9.81-13.07 13.06-20.66H76.42c-6.62 8.1-14.52 15.11-23.45 20.66zM184.97 208.44H94.02c-2.08 7.28-4.98 14.22-8.65 20.66h97.75a76.657 76.657 0 001.93-17.12c0-1.18-.03-2.36-.08-3.54zM97.68 182.47c0 4.41-.32 8.74-.9 12.99h86.47a75.221 75.221 0 00-4.8-14.6H97.63c.01.53.05 1.06.05 1.61zM96.94 170.6h75.99c-2.32-3.61-4.91-7.03-7.79-10.19H95.06c.8 3.33 1.44 6.72 1.88 10.19zM92.06 150.44h62.11c-2.49-1.86-5.1-3.55-7.81-5.1H90.05c.71 1.68 1.38 3.38 2.01 5.1zM142.55 10.82H29.68a76.929 76.929 0 00-13.06 20.66H119.1c6.62-8.1 14.52-15.12 23.45-20.66zM110.15 44.47H12.4a76.657 76.657 0 00-1.93 17.12c0 1.19.04 2.37.09 3.54h90.94c2.08-7.28 4.98-14.21 8.65-20.66zM97.84 91.11c0-4.41.32-8.74.9-12.99H12.27c1.11 5.08 2.73 9.96 4.8 14.6h80.82c-.01-.54-.05-1.07-.05-1.61zM98.58 102.98H22.6c2.32 3.61 4.91 7.03 7.79 10.19h70.08c-.81-3.34-1.45-6.73-1.89-10.19zM103.46 123.13h-62.1c2.49 1.86 5.1 3.55 7.81 5.1h56.31c-.72-1.67-1.39-3.37-2.02-5.1zM78.74 138.34h43.72c-3.46-.89-6.59-1.84-9.2-3.1H70.24c3.01.97 5.88 1.98 8.5 3.1z" fill="#172032"></path></svg>