<svg xmlns:xlink="http://www.w3.org/1999/xlink" xmlns="http://www.w3.org/2000/svg" viewBox="0 0 354 500" class="MainFooter__logo__1Gv9w_0" width="354"  height="500" ><path d="M89.8 495.3h219.8c10.5-11.9 19.1-25.5 25.4-40.2H135.4c-12.8 15.8-28.2 29.4-45.6 40.2zM346.8 389.5H169.7c-4.1 14.2-9.7 27.7-16.8 40.2h190.4c2.4-10.7 3.8-21.9 3.8-33.3l-.3-6.9zM176.9 339c0 8.6-.6 17-1.8 25.3h168.4c-2.2-9.9-5.3-19.4-9.3-28.4H176.8c0 1 .1 2 .1 3.1zM175.4 315.8h148c-4.5-7-9.6-13.7-15.2-19.8H171.7c1.6 6.5 2.9 13.1 3.7 19.8zM165.9 276.6h120.9c-4.8-3.6-9.9-6.9-15.2-9.9H162c1.4 3.2 2.7 6.5 3.9 9.9zM264.2 4.7H44.4C33.9 16.6 25.3 30.1 19 44.9h199.6c12.8-15.8 28.2-29.4 45.6-40.2zM201.1 70.2H10.8C8.3 80.9 7 92.1 7 103.6c0 2.3.1 4.6.2 6.9h177.1c4-14.2 9.7-27.7 16.8-40.3zM177.2 161c0-8.6.6-17 1.8-25.3H10.5c2.2 9.9 5.3 19.4 9.3 28.4h157.4V161zM178.6 184.2h-148c4.5 7 9.6 13.7 15.2 19.8h136.5c-1.6-6.5-2.8-13.1-3.7-19.8zM188.1 223.4H67.2c4.8 3.6 9.9 6.9 15.2 9.9H192c-1.4-3.2-2.7-6.5-3.9-9.9zM140 253h85.1c-6.7-1.7-12.8-3.6-17.9-6h-83.8c5.9 1.9 11.5 3.8 16.6 6z" fill="#E8B34B"></path></svg>